<?xml version="1.0" encoding="utf-8"?>
<!-- Generator: Adobe Illustrator 19.2.1, SVG Export Plug-In . SVG Version: 6.00 Build 0)  -->
<svg version="1.1" id="Layer_1" xmlns="http://www.w3.org/2000/svg" xmlns:xlink="http://www.w3.org/1999/xlink" x="0px" y="0px"
	 viewBox="0 0 23 23" style="enable-background:new 0 0 23 23;" xml:space="preserve">
<style type="text/css">
	.st0{fill:#002147;}
</style>
<g>
	<path class="st0" d="M9.2,2.3c3.7,0,6.8,3,6.8,6.8s-3,6.8-6.8,6.8s-6.8-3-6.8-6.8C2.4,5.4,5.4,2.3,9.2,2.3 M22.8,21l-6.4-6.4
		c1.2-1.6,1.8-3.5,1.8-5.5c0-5-4.1-9.1-9.1-9.1S0,4.1,0,9.1s4.1,9.1,9.1,9.1c2,0,4-0.7,5.6-1.9l6.4,6.4c0.2,0.2,0.5,0.3,0.8,0.3
		s0.6-0.1,0.8-0.3s0.3-0.5,0.3-0.8C23.1,21.5,23,21.2,22.8,21"/>
</g>
</svg>
